<svg width="260" height="39" viewBox="0 0 260 39" fill="none" xmlns="http://www.w3.org/2000/svg">
<g clip-path="url(#clip0_214_384)">
<path d="M16.6088 6.04395C13.8762 6.04395 11.2557 7.12943 9.32349 9.06162L3.01767 15.3674C1.08549 17.2996 0 19.9202 0 22.6527C0 28.3429 4.6128 32.9557 10.303 32.9557C13.0355 32.9557 15.6561 31.8702 17.5883 29.938L21.95 25.5762C21.95 25.5761 21.9501 25.5763 21.95 25.5762L34.6588 12.8675C35.5816 11.9447 36.8331 11.4263 38.1382 11.4263C40.3231 11.4263 42.1754 12.8503 42.8176 14.8208L46.8284 10.81C44.9987 7.94422 41.7904 6.04395 38.1382 6.04395C35.4057 6.04395 32.7851 7.12943 30.8529 9.06162L13.7824 26.1321C12.8596 27.0549 11.608 27.5734 10.303 27.5734C7.58539 27.5734 5.38235 25.3704 5.38235 22.6527C5.38235 21.3477 5.90077 20.0961 6.82357 19.1733L13.1294 12.8675C14.0522 11.9447 15.3037 11.4263 16.6088 11.4263C18.7937 11.4263 20.646 12.8504 21.2882 14.821L25.2991 10.8101C23.4694 7.94427 20.2611 6.04395 16.6088 6.04395Z" fill="url(#paint0_linear_214_384)"/>
<path d="M35.3119 26.1321C34.3891 27.0549 33.1375 27.5734 31.8325 27.5734C29.6479 27.5734 27.7957 26.1497 27.1533 24.1795L23.1426 28.1903C24.9724 31.0556 28.1805 32.9557 31.8325 32.9557C34.565 32.9557 37.1856 31.8702 39.1178 29.938L56.1883 12.8675C57.1111 11.9447 58.3626 11.4263 59.6677 11.4263C62.3853 11.4263 64.5883 13.6293 64.5883 16.3469C64.5883 17.652 64.0699 18.9036 63.1471 19.8264L56.8413 26.1321C55.9185 27.0549 54.6669 27.5734 53.3619 27.5734C51.1771 27.5734 49.3249 26.1495 48.6826 24.1791L44.6718 28.1899C46.5015 31.0556 49.7098 32.9557 53.3619 32.9557C56.0944 32.9557 58.715 31.8702 60.6472 29.938L66.953 23.6322C68.8851 21.7 69.9707 19.0795 69.9707 16.3469C69.9707 10.6567 65.3579 6.04395 59.6677 6.04395C56.9351 6.04395 54.3146 7.12943 52.3824 9.06162L35.3119 26.1321Z" fill="url(#paint1_linear_214_384)"/>
</g>
<path d="M97.2202 24.5975L95.6927 25.1337L101.705 9.63125C101.9 9.11125 102.128 8.75375 102.388 8.55875C102.658 8.35292 103.027 8.25 103.493 8.25H108.254C108.568 8.25 108.801 8.30958 108.953 8.42875C109.104 8.54792 109.18 8.71583 109.18 8.9325C109.18 9.11667 109.126 9.27375 109.018 9.40375C108.92 9.52292 108.758 9.615 108.53 9.68L107.653 9.9075C107.295 10.005 107.051 10.1512 106.921 10.3462C106.802 10.5304 106.753 10.8283 106.775 11.24L108.043 28.2375C108.064 28.595 108.135 28.8496 108.254 29.0012C108.384 29.1421 108.606 29.2558 108.92 29.3425L109.781 29.57C109.998 29.6242 110.15 29.7162 110.236 29.8462C110.334 29.9654 110.383 30.1117 110.383 30.285C110.383 30.4908 110.307 30.6642 110.155 30.805C110.014 30.935 109.787 31 109.473 31H101.591C101.277 31 101.044 30.9404 100.893 30.8212C100.741 30.6912 100.665 30.5233 100.665 30.3175C100.665 30.1442 100.714 29.9925 100.811 29.8625C100.909 29.7325 101.082 29.635 101.331 29.57L102.193 29.3425C102.561 29.245 102.805 29.1204 102.924 28.9688C103.054 28.8062 103.113 28.5625 103.103 28.2375L101.754 10.9312L103.135 10.8175L96.2452 28.7737C96.061 29.2612 95.8714 29.5754 95.6764 29.7162C95.4922 29.8571 95.2702 29.9275 95.0102 29.9275C94.8152 29.9275 94.6364 29.9058 94.4739 29.8625C94.3222 29.8083 94.176 29.6946 94.0352 29.5212C93.9052 29.3479 93.7697 29.0771 93.6289 28.7087L86.5764 11.2887L87.9089 10.7687L86.4952 27.685C86.4627 28.1508 86.5656 28.5083 86.8039 28.7575C87.0422 28.9958 87.3781 29.2017 87.8114 29.375L88.6564 29.635C88.8189 29.7108 88.9435 29.7975 89.0302 29.895C89.1277 29.9925 89.1764 30.1225 89.1764 30.285C89.1764 30.5017 89.1006 30.675 88.9489 30.805C88.7972 30.935 88.5697 31 88.2664 31H83.0014C82.6981 31 82.4706 30.9404 82.3189 30.8212C82.1672 30.6912 82.0914 30.5233 82.0914 30.3175C82.0914 30.1008 82.1564 29.9383 82.2864 29.83C82.4164 29.7217 82.5843 29.6242 82.7902 29.5375L83.4727 29.3262C83.8627 29.1962 84.1714 29.0067 84.3989 28.7575C84.6264 28.4975 84.7618 28.1346 84.8052 27.6687L86.1377 11.63C86.181 11.11 86.1322 10.72 85.9914 10.46C85.8614 10.1892 85.6122 10.005 85.2439 9.9075L84.4152 9.7125C84.1768 9.6475 83.9981 9.55542 83.8789 9.43625C83.7706 9.30625 83.7164 9.14375 83.7164 8.94875C83.7164 8.48292 84.0306 8.25 84.6589 8.25H89.3877C89.821 8.25 90.1677 8.33667 90.4277 8.51C90.6985 8.68333 90.9368 9.03542 91.1427 9.56625L97.2202 24.5975ZM120.459 15.3512C122.095 15.3512 123.536 15.6925 124.781 16.375C126.038 17.0575 127.019 18.0054 127.723 19.2187C128.427 20.4212 128.779 21.8187 128.779 23.4112C128.779 24.9279 128.416 26.2929 127.69 27.5062C126.975 28.7087 125.979 29.6567 124.7 30.35C123.433 31.0433 121.959 31.39 120.28 31.39C118.634 31.39 117.187 31.0487 115.941 30.3662C114.696 29.6837 113.721 28.7412 113.016 27.5387C112.312 26.3254 111.96 24.9279 111.96 23.3462C111.96 21.8079 112.318 20.4375 113.033 19.235C113.759 18.0325 114.755 17.0846 116.023 16.3912C117.301 15.6979 118.78 15.3512 120.459 15.3512ZM121.564 29.8462C122.301 29.7271 122.891 29.3858 123.335 28.8225C123.779 28.2592 124.061 27.4737 124.18 26.4662C124.31 25.4587 124.251 24.2454 124.001 22.8262C123.752 21.4071 123.395 20.2425 122.929 19.3325C122.463 18.4117 121.911 17.7454 121.271 17.3337C120.632 16.9221 119.934 16.7812 119.175 16.9112C118.439 17.0196 117.848 17.3608 117.404 17.935C116.96 18.4983 116.678 19.2837 116.559 20.2912C116.44 21.2879 116.499 22.5012 116.738 23.9312C116.987 25.3287 117.344 26.4879 117.81 27.4087C118.287 28.3296 118.845 28.9958 119.484 29.4075C120.123 29.8083 120.816 29.9546 121.564 29.8462ZM137.064 16.375V28.5625C137.064 28.8767 137.108 29.1096 137.194 29.2612C137.292 29.4129 137.433 29.5212 137.617 29.5862L138.234 29.7487C138.559 29.8787 138.722 30.0792 138.722 30.35C138.722 30.7833 138.446 31 137.893 31H131.588C131.306 31 131.101 30.9458 130.971 30.8375C130.841 30.7292 130.776 30.5775 130.776 30.3825C130.776 30.2308 130.819 30.1062 130.906 30.0087C131.003 29.9004 131.144 29.8137 131.328 29.7487L131.994 29.5862C132.189 29.5212 132.33 29.4183 132.417 29.2775C132.514 29.1258 132.563 28.8929 132.563 28.5787V19.0075C132.563 18.7475 132.52 18.5633 132.433 18.455C132.357 18.3358 132.233 18.2654 132.059 18.2437L131.182 18.1787C130.998 18.1354 130.862 18.0704 130.776 17.9837C130.7 17.8971 130.662 17.7833 130.662 17.6425C130.662 17.48 130.711 17.35 130.808 17.2525C130.906 17.1442 131.09 17.0412 131.361 16.9437L134.546 15.8225C134.914 15.6817 135.212 15.5842 135.439 15.53C135.678 15.465 135.9 15.4325 136.106 15.4325C136.42 15.4325 136.658 15.5192 136.821 15.6925C136.983 15.8658 137.064 16.0933 137.064 16.375ZM136.577 19.95L135.894 19.2512L136.528 18.6987C137.871 17.4529 139.036 16.5862 140.022 16.0987C141.019 15.6004 141.961 15.3512 142.849 15.3512C144.214 15.3512 145.303 15.7846 146.116 16.6512C146.939 17.5179 147.351 18.6933 147.351 20.1775V28.53C147.351 28.8658 147.399 29.1096 147.497 29.2612C147.605 29.4129 147.757 29.5212 147.952 29.5862L148.521 29.7487C148.835 29.8787 148.992 30.0792 148.992 30.35C148.992 30.7833 148.716 31 148.163 31H142.004C141.452 31 141.176 30.7833 141.176 30.35C141.176 30.0792 141.333 29.8787 141.647 29.7487L142.281 29.5862C142.486 29.5212 142.633 29.4075 142.719 29.245C142.817 29.0825 142.866 28.8387 142.866 28.5137V20.8275C142.866 19.8742 142.638 19.1646 142.183 18.6987C141.739 18.2221 141.132 17.9837 140.363 17.9837C139.876 17.9837 139.372 18.0975 138.852 18.325C138.332 18.5525 137.79 18.91 137.227 19.3975L136.577 19.95ZM146.863 19.95L146.181 19.2512L146.798 18.6825C148.087 17.4908 149.203 16.6404 150.146 16.1312C151.088 15.6112 151.987 15.3512 152.843 15.3512C154.143 15.3512 155.156 15.79 155.882 16.6675C156.619 17.5342 157.068 18.7042 157.231 20.1775L158.157 28.53C158.2 28.8658 158.26 29.115 158.336 29.2775C158.422 29.4292 158.569 29.5321 158.774 29.5862L159.343 29.7487C159.538 29.8137 159.679 29.9004 159.766 30.0087C159.852 30.1062 159.896 30.2308 159.896 30.3825C159.896 30.5775 159.831 30.7292 159.701 30.8375C159.571 30.9458 159.365 31 159.083 31H152.746C152.193 31 151.917 30.7833 151.917 30.35C151.917 30.0792 152.074 29.8787 152.388 29.7487L153.022 29.5862C153.228 29.5212 153.385 29.4075 153.493 29.245C153.601 29.0825 153.639 28.8333 153.607 28.4975L152.746 20.8275C152.637 19.885 152.394 19.1754 152.014 18.6987C151.646 18.2221 151.099 17.9837 150.373 17.9837C149.94 17.9837 149.485 18.1029 149.008 18.3412C148.531 18.5796 148.028 18.9262 147.497 19.3812L146.863 19.95ZM175.753 21.51C175.753 22.0408 175.602 22.4525 175.298 22.745C174.995 23.0267 174.556 23.1675 173.982 23.1675H163.842V22.0137H170.456C170.976 22.0137 171.236 21.7808 171.236 21.315C171.236 19.8308 170.976 18.7096 170.456 17.9512C169.936 17.1929 169.243 16.8137 168.376 16.8137C167.715 16.8137 167.125 17.0196 166.605 17.4312C166.095 17.8429 165.695 18.4387 165.402 19.2187C165.12 19.9879 164.98 20.925 164.98 22.03C164.98 24.1425 165.467 25.7296 166.442 26.7912C167.428 27.8421 168.728 28.3675 170.342 28.3675C171.317 28.3675 172.168 28.1671 172.893 27.7662C173.619 27.3546 174.166 26.7804 174.535 26.0437C174.708 25.8487 174.843 25.7187 174.941 25.6537C175.049 25.5779 175.163 25.54 175.282 25.54C175.434 25.54 175.542 25.6104 175.607 25.7512C175.683 25.8921 175.721 26.06 175.721 26.255C175.678 27.1867 175.353 28.0425 174.746 28.8225C174.15 29.6025 173.343 30.2254 172.325 30.6912C171.306 31.1571 170.136 31.39 168.815 31.39C167.276 31.39 165.911 31.0704 164.72 30.4312C163.528 29.7921 162.591 28.8983 161.908 27.75C161.237 26.5908 160.901 25.2421 160.901 23.7037C160.901 22.0679 161.22 20.6217 161.86 19.365C162.51 18.1083 163.436 17.1279 164.638 16.4237C165.852 15.7087 167.298 15.3512 168.977 15.3512C170.396 15.3512 171.61 15.6167 172.617 16.1475C173.635 16.6675 174.41 17.3933 174.941 18.325C175.483 19.2458 175.753 20.3075 175.753 21.51ZM183.99 16.375V28.5625C183.99 28.8767 184.033 29.1096 184.12 29.2612C184.207 29.4129 184.348 29.5212 184.543 29.5862L185.16 29.7487C185.485 29.8787 185.648 30.0792 185.648 30.35C185.648 30.7833 185.371 31 184.819 31H178.514C178.232 31 178.026 30.9458 177.896 30.8375C177.766 30.7292 177.701 30.5775 177.701 30.3825C177.701 30.2308 177.745 30.1062 177.831 30.0087C177.929 29.9004 178.07 29.8137 178.254 29.7487L178.92 29.5862C179.115 29.5212 179.256 29.4183 179.343 29.2775C179.44 29.1258 179.489 28.8929 179.489 28.5787V18.9912C179.489 18.7421 179.445 18.5633 179.359 18.455C179.283 18.3358 179.158 18.2654 178.985 18.2437L178.108 18.1787C177.923 18.1354 177.788 18.0704 177.701 17.9837C177.625 17.8971 177.588 17.7833 177.588 17.6425C177.588 17.48 177.636 17.35 177.734 17.2525C177.831 17.1442 178.015 17.0412 178.286 16.9437L181.471 15.8225C181.85 15.6817 182.154 15.5842 182.381 15.53C182.609 15.465 182.825 15.4325 183.031 15.4325C183.345 15.4325 183.584 15.5192 183.746 15.6925C183.909 15.8658 183.99 16.0933 183.99 16.375ZM183.503 19.95L182.82 19.2512L183.454 18.6825C184.786 17.4908 185.929 16.6404 186.883 16.1312C187.836 15.6112 188.74 15.3512 189.596 15.3512C190.896 15.3512 191.904 15.7846 192.619 16.6512C193.345 17.5179 193.789 18.6825 193.951 20.145L194.894 28.5137C194.926 28.8496 194.98 29.0987 195.056 29.2612C195.143 29.4129 195.289 29.5212 195.495 29.5862L196.096 29.7487C196.28 29.8137 196.416 29.9004 196.503 30.0087C196.6 30.1062 196.649 30.2308 196.649 30.3825C196.649 30.5775 196.584 30.7292 196.454 30.8375C196.324 30.9458 196.118 31 195.836 31H189.466C188.914 31 188.638 30.7833 188.638 30.35C188.638 30.0792 188.795 29.8787 189.109 29.7487L189.759 29.5862C189.965 29.5212 190.122 29.4129 190.23 29.2612C190.338 29.0987 190.371 28.8496 190.328 28.5137L189.466 20.795C189.358 19.8525 189.12 19.1483 188.751 18.6825C188.383 18.2167 187.841 17.9837 187.126 17.9837C186.671 17.9837 186.195 18.1029 185.696 18.3412C185.209 18.5796 184.694 18.9317 184.153 19.3975L183.503 19.95ZM198.565 17.2037L197.736 16.9762C197.498 16.9004 197.33 16.8137 197.232 16.7162C197.135 16.6079 197.086 16.4779 197.086 16.3262C197.086 16.1312 197.151 15.985 197.281 15.8875C197.422 15.7792 197.606 15.725 197.834 15.725H198.874C199.112 15.725 199.312 15.6817 199.475 15.595C199.637 15.5083 199.8 15.3458 199.962 15.1075L201.88 12.5725C202.086 12.3125 202.286 12.1229 202.481 12.0037C202.676 11.8737 202.866 11.8087 203.05 11.8087C203.266 11.8087 203.429 11.8792 203.537 12.02C203.656 12.15 203.716 12.3396 203.716 12.5887V26.45C203.716 27.23 203.868 27.8204 204.171 28.2212C204.474 28.6221 204.897 28.8225 205.439 28.8225C205.818 28.8225 206.116 28.7521 206.332 28.6113C206.549 28.4596 206.722 28.2862 206.852 28.0912C206.993 27.8854 207.123 27.7012 207.242 27.5387C207.372 27.3762 207.529 27.2733 207.714 27.23C207.854 27.2192 207.968 27.2625 208.055 27.36C208.152 27.4575 208.196 27.6254 208.185 27.8637C208.163 28.4921 207.957 29.0717 207.567 29.6025C207.177 30.1225 206.641 30.5396 205.959 30.8537C205.287 31.1679 204.512 31.325 203.635 31.325C202.259 31.325 201.181 30.9838 200.401 30.3012C199.621 29.6187 199.231 28.5787 199.231 27.1812V18.0975C199.231 17.8375 199.182 17.6425 199.085 17.5125C198.987 17.3825 198.814 17.2796 198.565 17.2037ZM201.977 17.2037L201.994 15.725H207.324C207.551 15.725 207.73 15.7737 207.86 15.8712C208.001 15.9579 208.071 16.0933 208.071 16.2775C208.071 16.5375 207.936 16.7596 207.665 16.9437C207.405 17.1171 206.988 17.2037 206.414 17.2037H201.977ZM221.441 28.855V27.9125L221.311 27.8475V19.0075C221.311 18.7583 221.273 18.5796 221.197 18.4712C221.121 18.3521 220.997 18.2762 220.823 18.2437L219.946 18.195C219.762 18.1517 219.626 18.0867 219.54 18C219.464 17.9025 219.426 17.7833 219.426 17.6425C219.426 17.48 219.475 17.35 219.572 17.2525C219.67 17.155 219.848 17.0575 220.108 16.96L223.31 15.8387C223.678 15.6979 223.976 15.595 224.204 15.53C224.442 15.465 224.664 15.4325 224.87 15.4325C225.184 15.4325 225.417 15.5192 225.568 15.6925C225.731 15.8658 225.812 16.0987 225.812 16.3912V28.5625C225.812 28.8767 225.856 29.1096 225.942 29.2612C226.04 29.4129 226.186 29.5212 226.381 29.5862L227.015 29.7487C227.21 29.8137 227.351 29.9004 227.437 30.0087C227.535 30.1062 227.584 30.2308 227.584 30.3825C227.584 30.5775 227.513 30.7292 227.372 30.8375C227.242 30.9458 227.036 31 226.755 31H223.342C222.801 31 222.346 30.7996 221.977 30.3987C221.62 29.9979 221.441 29.4833 221.441 28.855ZM211.171 26.5475V19.0075C211.171 18.7583 211.128 18.5796 211.041 18.4712C210.965 18.3521 210.841 18.2762 210.667 18.2437L209.79 18.195C209.606 18.1517 209.476 18.0867 209.4 18C209.324 17.9025 209.286 17.7833 209.286 17.6425C209.286 17.48 209.335 17.35 209.432 17.2525C209.53 17.155 209.708 17.0575 209.968 16.96L213.17 15.8387C213.56 15.6871 213.868 15.5842 214.096 15.53C214.323 15.465 214.518 15.4325 214.681 15.4325C215.017 15.4325 215.266 15.5192 215.428 15.6925C215.591 15.8658 215.672 16.0987 215.672 16.3912V25.9137C215.672 26.8671 215.9 27.5821 216.355 28.0587C216.81 28.5246 217.422 28.7575 218.191 28.7575C218.668 28.7575 219.171 28.6437 219.702 28.4162C220.233 28.1887 220.78 27.8312 221.343 27.3437L221.993 26.775L222.676 27.49L222.042 28.0425C220.71 29.2775 219.54 30.1442 218.532 30.6425C217.525 31.1408 216.577 31.39 215.688 31.39C214.345 31.39 213.256 30.9567 212.422 30.09C211.588 29.2125 211.171 28.0317 211.171 26.5475ZM235.796 16.375V28.5625C235.796 28.8767 235.839 29.1096 235.926 29.2612C236.023 29.4129 236.164 29.5212 236.348 29.5862L236.966 29.7487C237.291 29.8787 237.453 30.0792 237.453 30.35C237.453 30.7833 237.177 31 236.625 31H230.32C230.038 31 229.832 30.9458 229.702 30.8375C229.572 30.7292 229.507 30.5775 229.507 30.3825C229.507 30.2308 229.55 30.1062 229.637 30.0087C229.735 29.9004 229.875 29.8137 230.06 29.7487L230.726 29.5862C230.921 29.5212 231.062 29.4183 231.148 29.2775C231.246 29.1258 231.295 28.8929 231.295 28.5787V19.0075C231.295 18.7475 231.251 18.5633 231.165 18.455C231.089 18.3358 230.964 18.2654 230.791 18.2437L229.913 18.1787C229.729 18.1354 229.594 18.0704 229.507 17.9837C229.431 17.8971 229.393 17.7833 229.393 17.6425C229.393 17.48 229.442 17.35 229.54 17.2525C229.637 17.1442 229.821 17.0412 230.092 16.9437L233.277 15.8225C233.645 15.6817 233.943 15.5842 234.171 15.53C234.409 15.465 234.631 15.4325 234.837 15.4325C235.151 15.4325 235.39 15.5192 235.552 15.6925C235.715 15.8658 235.796 16.0933 235.796 16.375ZM235.308 19.95L234.626 19.2512L235.26 18.6987C236.603 17.4529 237.768 16.5862 238.753 16.0987C239.75 15.6004 240.693 15.3512 241.581 15.3512C242.946 15.3512 244.035 15.7846 244.847 16.6512C245.67 17.5179 246.082 18.6933 246.082 20.1775V28.53C246.082 28.8658 246.131 29.1096 246.228 29.2612C246.337 29.4129 246.488 29.5212 246.683 29.5862L247.252 29.7487C247.566 29.8787 247.723 30.0792 247.723 30.35C247.723 30.7833 247.447 31 246.895 31H240.736C240.183 31 239.907 30.7833 239.907 30.35C239.907 30.0792 240.064 29.8787 240.378 29.7487L241.012 29.5862C241.218 29.5212 241.364 29.4075 241.451 29.245C241.548 29.0825 241.597 28.8387 241.597 28.5137V20.8275C241.597 19.8742 241.37 19.1646 240.915 18.6987C240.47 18.2221 239.864 17.9837 239.095 17.9837C238.607 17.9837 238.103 18.0975 237.583 18.325C237.063 18.5525 236.522 18.91 235.958 19.3975L235.308 19.95ZM245.595 19.95L244.912 19.2512L245.53 18.6825C246.819 17.4908 247.935 16.6404 248.877 16.1312C249.82 15.6112 250.719 15.3512 251.575 15.3512C252.875 15.3512 253.888 15.79 254.613 16.6675C255.35 17.5342 255.8 18.7042 255.962 20.1775L256.888 28.53C256.932 28.8658 256.991 29.115 257.067 29.2775C257.154 29.4292 257.3 29.5321 257.506 29.5862L258.075 29.7487C258.27 29.8137 258.41 29.9004 258.497 30.0087C258.584 30.1062 258.627 30.2308 258.627 30.3825C258.627 30.5775 258.562 30.7292 258.432 30.8375C258.302 30.9458 258.096 31 257.815 31H251.477C250.925 31 250.648 30.7833 250.648 30.35C250.648 30.0792 250.805 29.8787 251.12 29.7487L251.753 29.5862C251.959 29.5212 252.116 29.4075 252.225 29.245C252.333 29.0825 252.371 28.8333 252.338 28.4975L251.477 20.8275C251.369 19.885 251.125 19.1754 250.746 18.6987C250.378 18.2221 249.83 17.9837 249.105 17.9837C248.671 17.9837 248.216 18.1029 247.74 18.3412C247.263 18.5796 246.759 18.9262 246.228 19.3812L245.595 19.95Z" fill="url(#paint2_linear_214_384)"/>
<defs>
<linearGradient id="paint0_linear_214_384" x1="23.4142" y1="6.04395" x2="79.875" y2="64.4998" gradientUnits="userSpaceOnUse">
<stop stop-color="#FF7C64"/>
<stop offset="1" stop-color="#D8A7E5"/>
</linearGradient>
<linearGradient id="paint1_linear_214_384" x1="37.8751" y1="-3.50018" x2="54.3751" y2="32.9998" gradientUnits="userSpaceOnUse">
<stop offset="0.272049" stop-color="#FF7C64"/>
<stop offset="1" stop-color="#D8A7E5"/>
</linearGradient>
<linearGradient id="paint2_linear_214_384" x1="109.875" y1="8.50001" x2="281.875" y2="39" gradientUnits="userSpaceOnUse">
<stop stop-color="#FF7C64"/>
<stop offset="1" stop-color="#D8A7E5"/>
</linearGradient>
<clipPath id="clip0_214_384">
<rect width="69.9706" height="26.9118" fill="white" transform="translate(0 6.04395)"/>
</clipPath>
</defs>
</svg>
