<svg width="24" height="24" viewBox="0 0 24 24" fill="none" xmlns="http://www.w3.org/2000/svg">
<path d="M12 2C6.477 2 2 6.477 2 12C2 17.523 6.477 22 12 22C17.523 22 22 17.523 22 12C22 6.477 17.523 2 12 2Z" fill="url(#paint0_linear_9600_22921)"/>
<path d="M13.3538 14.6505H15.9418L16.3483 12.0215H13.3538V10.5845C13.3538 9.49246 13.7108 8.52396 14.7323 8.52396H16.3738V6.22996C16.0853 6.19096 15.4753 6.10596 14.3228 6.10596C11.9158 6.10596 10.5048 7.37696 10.5048 10.273V12.022H8.03027V14.651H10.5043V21.877C10.9943 21.95 11.4908 22 12.0003 22C12.4608 22 12.9103 21.958 13.3538 21.898V14.6505Z" fill="white"/>
<defs>
<linearGradient id="paint0_linear_9600_22921" x1="4.9965" y1="4.9965" x2="20.3075" y2="20.3075" gradientUnits="userSpaceOnUse">
<stop stop-color="#2AA4F4"/>
<stop offset="1" stop-color="#007AD9"/>
</linearGradient>
</defs>
</svg>
